<?xml version="1.0" encoding="UTF-8"?>
<!-- Created with Inkscape (http://www.inkscape.org/) -->
<svg width="300" height="300" version="1.1" viewBox="0 0 300 300" xmlns="http://www.w3.org/2000/svg" xmlns:cc="http://creativecommons.org/ns#" xmlns:dc="http://purl.org/dc/elements/1.1/" xmlns:rdf="http://www.w3.org/1999/02/22-rdf-syntax-ns#">
 <metadata>
  <rdf:RDF>
   <cc:Work rdf:about="">
    <dc:format>image/svg+xml</dc:format>
    <dc:type rdf:resource="http://purl.org/dc/dcmitype/StillImage"/>
    <dc:title/>
   </cc:Work>
  </rdf:RDF>
 </metadata>
 <path d="m86.039 280.72c0.037-4.6282 3.6315-11.034 9.4652-16.868l5.5584-5.5584-0.65341-4.9257c-1.6498-12.437 9.2217-23.404 26.858-27.095l5.75-1.2034-2e-3 -10.55-2e-3 -10.55-11.758-0.14679c-6.4669-0.0807-13.659-0.65865-15.982-1.2842-8.0422-2.1655-8.6699-3.2967-15.796-28.465-8.769-30.974-10.683-40.619-10.835-54.604-0.19607-18.013 4.0366-30.188 14.375-41.348 3.0363-3.2777 5.962-7.5532 6.5314-9.5447 1.2652-4.4254 4.0551-5.9099 12.614-6.7114 3.4951-0.32734 8.7042-1.4392 11.576-2.4708 7.221-2.594 23.106-5.6894 33.279-6.4845 14.448-1.1294 30.208 2.0298 37.892 7.5958 4.827 3.4967 7.1061 6.7578 8.2147 11.754 0.45266 2.0401 1.5416 6.8592 2.4199 10.709 2.8648 12.558 3.7559 17.57 7.5556 42.5 3.6843 24.173 6.0088 50.792 4.6323 53.049-0.87446 1.434-7.287 4.8106-15.714 8.2747-1.925 0.79128-5.143 2.1671-7.1511 3.0573s-4.2806 1.6186-5.05 1.6186-1.8264 0.37868-2.3489 0.84151c-1.8683 1.655-17.746 6.0383-28.95 7.9922l-4 0.69756 0.26154 7.9844c0.14384 4.3914 0.50173 9.4469 0.79531 11.234 0.52396 3.1902 0.63112 3.25 5.8285 3.25 6.2422 0 19.346 3.1635 23.32 5.6298 8.5915 5.3322 11.631 10.584 11.136 19.243l-0.34123 5.9681 3.5917 1.5822c6.2257 2.7426 14.465 13.403 16.29 21.077 0.39236 1.65 0.94733 3.7875 1.2333 4.75 0.47194 1.5886-0.44871 1.75-9.9801 1.75-9.3473 0-10.565-0.2036-11.089-1.8546-0.75018-2.3636-7.4915-9.1454-9.0908-9.1454-0.66619 0-2.7113 2.475-4.5446 5.5l-3.3333 5.5-30.539-0.0269-30.539-0.0269-2.451-3.9731c-1.3481-2.1852-2.7755-3.9731-3.1721-3.9731-0.39657 0-2.2618 1.8-4.1449 4l-3.4239 4h-18.308l0.022-2.75z" fill="#d1d1d2"/>
 <path d="m86.027 281.22c0.019-4.3864 4.6537-12.242 10.229-17.337l5.5596-5.0812-1.0078-4.4158c-2.8498-12.487 7.3514-23.264 26.209-27.69l7.1874-1.6868-0.58243-3.5195c-0.32034-1.9357-0.58738-6.7309-0.59343-10.656l-0.011-7.1365-13.75-0.41331c-20.557-0.61792-21.909-1.6815-27.478-21.614-11.17-39.982-12.002-43.885-12.522-58.774-0.30705-8.7926-0.05703-16.1 0.66627-19.472 1.7989-8.3878 7.4719-19.125 13.438-25.434 3.0249-3.1988 5.8715-7.3306 6.5034-9.4396 1.3167-4.3946 4.2458-6.0801 10.566-6.0801 2.3815 0 8.7707-1.367 14.198-3.0377 13.783-4.2426 24.761-5.9623 38.061-5.9623 19.562 0 33.132 4.8071 37.973 13.451 1.2169 2.1732 2.0138 4.273 1.7709 4.6661s0.0451 1.99 0.64017 3.5487c4.2721 11.19 13.678 73.399 14.185 93.814l0.24765 9.9805-6 3.0489c-12.195 6.1968-34.394 13.951-48.885 17.075l-8.8848 1.9155 0.57915 9.5232c0.31853 5.2378 0.84031 10.204 1.1595 11.036 0.41028 1.0692 3.284 1.8522 9.8056 2.6719 11.869 1.4918 15.502 2.603 21.403 6.5462 6.6593 4.4505 9.6259 10.316 9.0053 17.805-0.45595 5.5028-0.41418 5.6079 2.9485 7.4188 7.6917 4.1422 15.246 14.757 16.901 23.749l0.69031 3.75h-10.111c-8.782 0-10.111-0.21973-10.111-1.6714 0-0.91928-2.06-3.6453-4.5779-6.0578-5.2354-5.0164-5.4967-4.9464-10.471 2.8061l-3.1592 4.9231h-49.636l-1.215-3.75c-1.863-5.75-6.328-14.229-11.373-21.599-2.5117-3.6687-4.5667-7.1159-4.5667-7.6606 0-1.312-1.0446-1.2488-4.2928 0.25972-4.8286 2.2425-3.4136 6.2501 8.2971 23.498 3.5441 5.2198 5.4706 8.9128 4.7736 9.1505-0.6428 0.21916-1.8683-0.65641-2.7233-1.9457-3.8088-5.7434-4.546-6.2873-6.6997-4.9423-1.1123 0.69463-2.8846 2.5501-3.9386 4.1234-1.8775 2.8025-2.1034 2.8605-11.166 2.8633-8.9297 3e-3 -9.2497-0.075-9.2402-2.2471zm21.236-32.816c1.4363-0.65441 3.351-3.3532 4.957-6.987 2.0753-4.6955 2.2733-5.72 0.95685-4.9506-4.4521 2.6019-9.16 8.3268-9.16 11.139 0 2.1743 0.14767 2.2106 3.2461 0.79887zm-9.4179-66.01c2.4836-10.76 0.8065-25.271-4.9032-42.426-2.9932-8.993-3.3289-11.154-3.3385-21.498-0.012-12.829 1.6648-19.137 7.3109-27.503 2.7007-4.0017 2.9842-5.0809 2.4188-9.2065l-0.64057-4.6735-4.5878 4.9963c-4.823 5.2524-7.8696 10.579-10.802 18.887-1.3926 3.9456-1.7492 8.0579-1.691 19.5 0.0726 14.259 0.58719 17.771 5.1292 35 0.79746 3.025 1.8819 7.3 2.4098 9.5 0.52793 2.2 1.7926 6.925 2.8105 10.5s2.1303 7.7375 2.4721 9.25c0.93364 4.1311 2.1056 3.332 3.4117-2.3263zm9.1718 75.076c0-1.1 0.45-2 1-2s1 0.9 1 2-0.45 2-1 2-1-0.9-1-2z" fill="#a4a5a8"/>
 <path d="m86.397 280.32c1.1403-5.7015 5.0047-12 10.372-16.905 5.2785-4.8242 5.283-4.8336 4.3447-9.0097-0.5166-2.2992-0.78724-4.6875-0.60143-5.3073s0.61568-2.391 0.95525-3.936c0.86654-3.9426 8.065-11.412 13.798-14.317 2.6558-1.3458 7.9614-3.1544 11.79-4.019 7.9587-1.7973 7.5709-0.84223 6.3253-15.578l-0.6361-7.525-13.114-0.47384c-13.645-0.49304-18.523-1.7136-21.867-5.4722-2.1056-2.3663-14.763-46.872-17.235-60.599-2.5459-14.139-1.7755-31.729 1.7942-40.967 3.0379-7.8613 6.8173-13.659 12.498-19.172 2.622-2.5447 4.4241-5.4146 5.1096-8.1371 1.2185-4.839 2.2003-5.4055 11.087-6.397 3.575-0.39886 10.55-1.9383 15.5-3.421 15-4.493 25.431-5.8889 40-5.3527 16.526 0.60818 24.74 3.2738 31.25 10.141 2.3375 2.4657 4.25 5.3072 4.25 6.3143s1.101 6.1712 2.4466 11.476c4.7946 18.901 13.545 80.272 13.553 95.047 2e-3 4.2728-36.416 18.516-58.249 22.781l-5.75 1.1233 9e-3 6.1791c5e-3 3.3985 0.28347 8.4656 0.6193 11.26l0.6106 5.0812 9.1307 1.1071c13.049 1.5821 19.063 3.6661 24.173 8.3764 5.5001 5.0698 7.9466 11.107 7.016 17.314-0.61964 4.132-0.47208 4.6237 1.6302 5.4314 7.3075 2.8076 16.727 15.481 18.104 24.359l0.58172 3.75h-9.8287c-9.5083 0-9.8481-0.0773-10.424-2.3718-0.58151-2.3156-7.7832-9.6282-9.4826-9.6282-0.47025 0-2.5215 2.7-4.5584 6l-3.7034 6h-14.048l2.7818-4.75c6.8838-11.754 12.47-23.755 12.188-26.181-0.36414-3.1292-4.3108-4.698-16.799-6.6781-13.895-2.2031-27.865-1.3676-49.321 2.9498-11.824 2.3792-12.047 4.39-2.1247 19.127 7.2092 10.707 9.8858 15.532 8.6163 15.532-0.48437 0-2.1607-2.025-3.7251-4.5-1.5644-2.475-3.1581-4.5-3.5414-4.5-0.9941 0-6.9042 6.8779-6.9042 8.0348 0 0.55341-4.1063 0.9652-9.625 0.9652h-9.625zm20.694-31.388c1.6362-0.84612 7.3514-2.5094 12.7-3.6962 8.089-1.7947 12.922-2.157 28.725-2.1534 16.955 4e-3 19.646 0.23724 25 2.1674l6 2.163 2.167-2.4305c2.4299-2.7254 2.1728-5.4419-0.76671-8.1022-1.0452-0.94587-1.9003-2.5234-1.9003-3.5058s-0.48639-2.0866-1.0809-2.454c-2.0261-1.2522-12.408-3.3787-16.669-3.4144-4.0585-0.034-4.25 0.0988-4.25 2.9486 0 1.8544-1.0582 4.1686-2.7951 6.1125-2.3972 2.683-3.5004 3.1369-7.75 3.1888-6.9649 0.0851-11.184-2.3247-12.038-6.8753-0.65614-3.4975-0.76075-3.5685-4.2948-2.9143-14.505 2.6852-24.552 9.3977-26.664 17.815-0.7823 3.1169-0.4133 3.2343 3.6162 1.1506zm38.426-49.519c12.181-1.7806 28.607-5.2727 30.603-6.5064 0.36308-0.22439-1.7549-9.973-4.7067-21.663-6.9599-27.565-9.5859-43.252-9.7546-58.273-0.3228-28.74 8.1496-40.88 30.696-43.983 4.7209-0.64971 4.795-0.71284 3.0728-2.616-0.97069-1.0726-4.7149-3.4016-8.3206-5.1756l-6.5557-3.2254-19.017 0.11702c-15.205 0.09357-20.42 0.49447-26.015 2l-6.9984 1.883-0.81232 6c-0.44678 3.3-0.56604 9.259-0.26503 13.242l0.54729 7.2422-3.5753 1.4939c-1.9664 0.82163-7.8534 1.7946-13.082 2.1621-10.872 0.76424-11.216 0.56399-11.4-6.6404-0.0632-2.475-0.41512-5.5708-0.78195-6.8795-0.65485-2.3363-0.73407-2.3052-4.3647 1.7135-8.0379 8.897-11.816 17.397-13.818 31.086-1.9492 13.331 0.72645 28.825 11.584 67.08 1.4829 5.225 2.9218 10.991 3.1974 12.813 0.60827 4.0215 5.7421 7.804 12.353 9.1014 7.7834 1.5275 23.024 1.1317 37.414-0.97174zm-30.5-0.85944c0-1.2283 0.64569-2.0833 1.5733-2.0833 0.93124 0 1.4414 0.68037 1.25 1.6671-0.48655 2.5088-2.8233 2.8532-2.8233 0.4162zm17.4 0.51667c-0.36606-0.95394-0.17057-2.2294 0.43443-2.8344 0.8-0.8 1.2815-0.62698 1.7656 0.63443 0.36606 0.95394 0.17057 2.2294-0.43443 2.8344-0.8 0.8-1.2815 0.62698-1.7656-0.63443zm18.046-3.6871c-1.0305-1.6674 1.2872-3.5795 2.6667-2.2 1.1539 1.1539 0.43172 3.2871-1.1129 3.2871-0.48508 0-1.1843-0.48921-1.5538-1.0871zm-50.446-1.9129c0-1.1 0.40186-2 0.89301-2 1.124 0 2.1725 2.6011 1.3714 3.4022-1.2038 1.2038-2.2644 0.54696-2.2644-1.4022zm68-3.0833c0-2.437 2.3368-2.0926 2.8233 0.4162 0.19138 0.98676-0.31876 1.6671-1.25 1.6671-0.92763 0-1.5733-0.855-1.5733-2.0833zm-63-10.917c-4.3111-4.3111-1.3802-11.43 5.9061-14.346 2.169-0.86784 8.9636-2.1224 15.099-2.7878 9.0798-0.98479 11.839-0.96424 14.825 0.11046 4.5929 1.6527 7.1695 4.5354 7.1695 8.0212 0 4.8459-4.5671 7.2539-17.926 9.4514-13.623 2.241-22.543 2.0811-25.074-0.44943zm-6.5-52.84c-2.6642-0.59505-3.0336-1.1278-3.2999-4.7589l-0.29986-4.0888 12.207-0.65635c16.345-0.87888 33.667-0.8315 34.235 0.0936 0.253 0.4125 0.61706 2.3188 0.80902 4.2362 0.34444 3.4405 0.29004 3.4944-4.151 4.1154-7.2459 1.0131-36.227 1.7901-39.5 1.059zm19.5-39.462 6.5-1.2085 0.29044-8.2448c0.15975-4.5347-0.0652-8.2299-0.5-8.2116-3.1525 0.13269-8.2904 7.8153-8.2904 12.396 0 3.85-1.9872 5.5704-6.4343 5.5704-2.0788 0-2.5657-0.48056-2.5657-2.5321 0-3.361 2.581-9.393 5.222-12.204l2.1266-2.2636h-2.2315c-1.2273 0-4.2801 0.51584-6.7839 1.1463l-4.5524 1.1463 0.42916 5.9331c0.26414 3.6517 0.9792 6.2871 1.8596 6.8537 1.2321 0.79291 1.2225 1.0571-0.0696 1.9052-2.1418 1.406 6.8168 1.2349 15-0.28653zm4.5-2.6982c-0.33992-0.55-0.14148-1 0.44098-1s1.059 0.45 1.059 1-0.19844 1-0.44098 1-0.7191-0.45-1.059-1zm-6.6259-19.549c4.4693-0.38986 8.1259-1.1365 8.1259-1.6592 0-0.52268-1.2375-0.71325-2.75-0.42348s-5.5633 0.8198-9.0018 1.1778c-3.4385 0.35805-6.5498 1.1332-6.914 1.7225-0.40642 0.6576-0.0681 0.84353 0.87586 0.48131 0.84597-0.32463 5.1948-0.90921 9.664-1.2991zm-8.8741 192.61c0-0.51754 0.45-1.2191 1-1.559s1 0.0835 1 0.94098c0 0.85746-0.45 1.559-1 1.559s-1-0.42344-1-0.94098zm10-4.059c0-1.1 0.45-2 1-2s1 0.9 1 2-0.45 2-1 2-1-0.9-1-2zm51 0.5c0-0.825 0.675-1.5 1.5-1.5s1.5 0.675 1.5 1.5-0.675 1.5-1.5 1.5-1.5-0.675-1.5-1.5zm-39-2.5c0-1.1 0.45-2 1-2s1 0.9 1 2-0.45 2-1 2-1-0.9-1-2zm12-0.44098c0-0.79254 0.45-1.7191 1-2.059s1 0.30852 1 1.441-0.45 2.059-1 2.059-1-0.64844-1-1.441zm14.5 0.44098c-0.81551-1.3195 0.38021-3.1921 1.5691-2.4573 1.2146 0.75067 1.2067 3.4573-0.0101 3.4573-0.51754 0-1.2191-0.45-1.559-1z" fill="#867777"/>
 <path d="m86.545 280.22c1.161-5.4952 5.7303-12.861 10.557-17.019l4.6-3.9624-0.44076-7.1343c-0.41578-6.73-0.26493-7.375 2.6612-11.381 5.4525-7.464 14.016-12.081 27.345-14.743 2.4817-0.49559 2.7493-0.96201 2.7429-4.7801-4e-3 -2.327-0.29398-7.2684-0.6446-10.981l-0.6375-6.75h-9.8062c-5.3934 0-12.062-0.48376-14.819-1.075-5.1893-1.1129-11.117-4.4682-11.853-6.7091-0.23199-0.70627 1.1906-0.1899 3.1614 1.1475 5.8827 3.9921 12.318 4.9858 28.026 4.328 13.917-0.58279 29.956-2.9126 42.58-6.1847 3.575-0.92667 6.6177-1.8 6.7616-1.9407 0.14388-0.14071-2.2073-10.113-5.2248-22.161-7.411-29.589-8.6977-37.287-9.2609-55.405-0.65703-21.136 1.3526-29.211 9.3045-37.386 4.9451-5.0838 11.304-7.8013 19.653-8.3987 3.7214-0.26626 6.7412-0.76115 6.7108-1.0997-0.0998-1.1108-5.636-5.0431-10.635-7.5538-10.305-5.176-32.065-5.5728-52.446-0.95646-7.8664 1.7818-7.8642 1.7766-7.8642 18.044v10.4l-2.75 1.1329c-1.5125 0.62307-7.2973 1.3356-12.855 1.5833-11.583 0.51631-11.355 0.70685-11.381-9.5157-8e-3 -2.8875-0.37232-5.25-0.8107-5.25-1.3772 0-7.8759 7.287-11.148 12.5-5.4379 8.6639-7.4987 17.284-7.4118 31 0.08392 13.242 1.6568 21.987 8.4279 46.859 2.2248 8.1722 3.859 15.045 3.6316 15.272-0.50043 0.50044-8.0345-26.322-10.796-38.436-2.4824-10.889-3.5197-30.624-2.0337-38.694 1.6705-9.0719 7.9967-21.031 14.547-27.5 3.063-3.025 5.5717-6.2507 5.5749-7.1682 0.0169-4.9058 4.3603-7.898 11.206-7.7199l4.2997 0.11184-5 0.94812c-6.6243 1.2561-8.6791 3.2839-2.5 2.4671 14.713-1.9448 14.944-1.9489 15.588-0.27117 0.81415 2.1216 2.4124 1.0892 2.4124-1.5584 0-1.851-0.44072-2.0135-4.1211-1.5199-9.9436 1.3337 3.1193-3.959 17.121-6.937 12.981-2.7609 36.192-2.5786 45.523 0.35745 7.7091 2.4257 14.51 7.4358 16.288 12 4.928 12.645 13.574 65.697 16.685 102.38l0.64369 7.5892-6.8203 3.5463c-10.673 5.5493-29.681 12.354-44.393 15.892l-13.448 3.2338 0.36915 7.575c0.20303 4.1662 0.66861 9.375 1.0346 11.575l0.66548 4 7.976 0.58118c21.461 1.5638 31.916 9.3501 31.715 23.618l-0.0876 6.1992 4.3621 2.5564c7.7506 4.5422 15.416 16.089 15.465 23.295l0.022 3.25h-9.0248c-8.4318 0-9.0825-0.14782-9.904-2.25-1.6649-4.2606-9.0264-10.514-10.966-9.3151-0.54047 0.33403-2.3933 3.0728-4.1174 6.0862l-3.1347 5.4789h-6.4266c-3.5346 0-6.4266-0.21131-6.4266-0.46958 0-0.58408 3.9281-7.6707 5.0055-9.0304 2.8414-3.5858 8.9945-17.833 8.9945-20.826 0-3.306-0.27972-3.6044-4.75-5.0671-12.444-4.0717-36.913-4.5712-54.25-1.1074-7.876 1.5736-10.685 1.8524-9.8056 0.97315 1.1613-1.1613 20.934-4.373 30.806-5.0039 11.678-0.74632 27.372 0.66296 34.56 3.1035 4.2887 1.4561 4.7643 1.4447 6.5328-0.15573 2.6128-2.3645 2.3911-5.6878-0.61789-9.2637-1.3889-1.6506-2.4014-3.5734-2.25-4.273 0.40609-1.8767-6.639-3.9718-15.499-4.6092-6.9677-0.50128-7.7079-0.38684-7.1361 1.1032 0.8964 2.336-1.3477 7.2379-4.1557 9.0778-3.0406 1.9923-9.7157 1.9835-13.934-0.0183-2.4961-1.1845-3.4597-2.4053-3.9464-5-0.77699-4.1417-1.9744-4.2856-11.659-1.4014-7.4897 2.2305-14.136 6.7189-17.633 11.909-2.6362 3.9118-3.0569 7.5958-0.76141 6.6669 4.2035-1.701 4.6964-1.6244 1.75 0.27192-1.7875 1.1504-3.25 2.5628-3.25 3.1385 0 2.366 3.3368 8.7251 8.8449 16.856 6.7439 9.9553 8.542 13.127 7.4403 13.125-0.43185-9.8e-4 -2.064-2.026-3.627-4.5-1.563-2.4741-3.2123-4.4983-3.665-4.4983-0.45275 0-2.6057 2.025-4.7842 4.5l-3.9611 4.5h-17.407zm26.972-192.24c5.5-0.79687 10.338-1.4631 10.75-1.4806 0.4125-0.0174 0.75-4.1124 0.75-9.0998v-9.0681l-3.0151 2.1469c-3.605 2.567-5.5838 6.1327-6.2738 11.305-0.61742 4.6283-0.33894 4.3431-5.1113 5.2347l-3.9001 0.72863 0.67422-4.3894c0.37082-2.4142 2.0041-6.302 3.6295-8.6395 3.3182-4.7719 3.2785-4.7986-5.3639-3.6141l-4.6396 0.63592v6.3144c0 4.7943 0.392 6.5338 1.6284 7.2257 1.1133 0.62306 1.2715 1.1319 0.5 1.6087-1.2663 0.78264-1.5335 2.5899-0.37842 2.5599 0.4125-0.0107 5.25-0.67143 10.75-1.4683zm-10.515-20.321c-0.0132-1.4573-0.14929-1.4837-0.98469-0.19098-1.2656 1.9584-1.2656 3.2822 0 2.5 0.55-0.33992 0.99311-1.379 0.98469-2.309zm4.0153 189.81c0-0.55 0.45-1 1-1s1 0.45 1 1-0.45 1-1 1-1-0.45-1-1zm10.446-3.0871c-0.36954-0.59793-0.17109-1.5879 0.44098-2.2 0.81716-0.81716 1.1129-0.52829 1.1129 1.0871 0 2.4145-0.51946 2.7866-1.5538 1.1129zm50.554-0.41287c0-0.825 0.45-1.5 1-1.5s1 0.675 1 1.5-0.45 1.5-1 1.5-1-0.675-1-1.5zm-38.554-1.5871c-0.36954-0.59793-0.17109-1.5879 0.44098-2.2 0.81716-0.81716 1.1129-0.52829 1.1129 1.0871 0 2.4145-0.51946 2.7866-1.5538 1.1129zm11.554-1.4129c0-0.825 0.45-1.5 1-1.5s1 0.675 1 1.5-0.45 1.5-1 1.5-1-0.675-1-1.5zm14.694 0.86052c-0.79893-0.79893 0.10419-2.3605 1.3652-2.3605 0.51754 0 0.94098 0.675 0.94098 1.5 0 1.5464-1.18 1.9867-2.3062 0.86052zm-40.285-52.736c-0.84721-2.2078 0.27991-3.3349 1.8074-1.8074 0.9019 0.9019 0.90574 1.4609 0.0161 2.3506-0.88962 0.88962-1.3233 0.76045-1.8235-0.54313zm17.091-0.62409c-0.81551-1.3195 0.38021-3.1921 1.5691-2.4573 1.2146 0.75067 1.2067 3.4573-0.0101 3.4573-0.51754 0-1.2191-0.45-1.559-1zm18.5-3.5c0-0.825 0.45-1.5 1-1.5s1 0.675 1 1.5-0.45 1.5-1 1.5-1-0.675-1-1.5zm-51-1c0-0.825 0.45-1.5 1-1.5s1 0.675 1 1.5-0.45 1.5-1 1.5-1-0.675-1-1.5zm68.5-2.5c-0.39915-0.64585-0.27574-1.6243 0.27426-2.1743 0.66667-0.66667 1.2419-0.60858 1.7257 0.17426 0.39915 0.64585 0.27574 1.6243-0.27426 2.1743-0.66667 0.66667-1.2419 0.60858-1.7257-0.17426zm-74.421-2.5833c0.048-1.165 0.28494-1.4019 0.60416-0.60417 0.28887 0.72187 0.25335 1.5844-0.0789 1.9167-0.3323 0.33229-0.56864-0.25834-0.52522-1.3125zm13.163-8.3889c-6.1726-2.6497-4.6262-11.693 2.5183-14.726 2.0569-0.87345 8.8012-2.2416 14.987-3.0404 9.5035-1.2271 11.893-1.2436 15.411-0.10663 7.8152 2.526 9.9903 9.5776 4.0278 13.058-5.8707 3.4263-32.189 6.8571-36.944 4.8159zm-9.9919-54.734c-1.5717-0.30272-2.25-1.1415-2.25-2.782 0-5.6696-0.68802-5.5122 24.107-5.5122h22.893v7.6899l-13.658 0.65503c-14.431 0.69209-27.345 0.67103-31.092-0.0507z" fill="#727274"/>
 <path d="m86.597 280.05c1.1639-5.3974 4.5256-10.856 9.9424-16.145 5.1244-5.003 5.2514-5.2632 4.7485-9.7254-0.8715-7.7319 0.38452-11.46 5.6267-16.703 5.927-5.927 11.458-8.522 24.353-11.426l2.75-0.61933v-21.678l-13.454-0.51337c-11.537-0.44023-14.131-0.85224-18.205-2.8918-2.6133-1.3081-4.9173-2.9278-5.12-3.5992-0.20266-0.67139 1.8021 4e-3 4.4551 1.5 4.7418 2.6746 5.1204 2.7206 22.324 2.7132 18.127-8e-3 28.635-1.3279 45.274-5.6874l7.7736-2.0369-0.51207-3.6341-0.51207-3.6341 1.0311 3.3039c1.1988 3.8413 0.46191 3.934 15.446-1.9426 5.5-2.1571 12.475-5.4079 15.5-7.2242 4.469-2.6832 5.437-3.7343 5.1638-5.6074-0.1849-1.2678 0.2343-2.6577 0.93156-3.0886 1.0236-0.63264 1.0234-2.9649-1e-3 -12.112-2.8649-25.579-6.1842-50.527-8.5817-64.501-1.3994-8.1553-2.7603-16.178-3.0244-17.828l-0.48021-3 1.0239 3c4.0487 11.863 12.006 63.908 14.405 94.219l0.57144 7.2194-8.2541 3.9432c-14.845 7.0917-36.083 14.224-51.081 17.154l-5.8272 1.1383 0.69527 7.6631c0.38241 4.2147 0.99045 9.4631 1.3512 11.663l0.65593 4 7.976 0.58118c12.62 0.91956 19.4 3.2792 25.952 9.0316 4.3563 3.8248 6.652 10.72 5.559 16.697-0.75662 4.1376-0.75005 4.1491 3.5597 6.2354 7.4452 3.6042 14.896 13.958 16.038 22.285l0.63996 4.669h-18.178l-1.6372-3.4502c-1.6032-3.3785-7.2806-8.5498-9.3865-8.5498-0.58483 0-2.7511 2.7-4.8139 6-2.2659 3.6249-4.4444 6-5.5034 6-0.96406 0-1.7528-0.36273-1.7528-0.80607s2.925-5.0306 6.5-10.194c7.8272-11.305 8.154-13.581 2.7284-19.007-5.8011-5.8011-14.286-8.0897-32.228-8.693-13.54-0.45528-23.148 0.37885-38 3.2991-1.925 0.37849-3.2434 0.40444-2.9298 0.0577 0.31359-0.34677 4.3281-1.3434 8.9211-2.2146 28.889-5.4802 59.224-2.6554 67.037 6.2425 1.6346 1.8617 3.0084 4.1568 3.0529 5.1001 0.16127 3.4172 3.8671-6.3902 3.8862-10.285 0.0485-9.877-12.366-18.247-28.562-19.258l-8.4055-0.52442v3.0592c0 4.4276-0.88331 6.111-4.0715 7.7597-6.2466 3.2302-16.91 0.22688-16.944-4.7723-0.0297-4.3873-0.99087-4.6713-8.9531-2.6449-14.282 3.6347-23.032 11.469-23.032 20.62 0 5.079 2.2452 9.8727 9.4888 20.26 5.9814 8.5772 7.9207 12.001 6.7963 11.998-0.43185-9.8e-4 -2.064-2.026-3.627-4.5-1.563-2.474-3.2123-4.4982-3.665-4.4982-0.45275 0-2.6182 2.0392-4.8121 4.5317l-3.9889 4.5317-8.6382-0.20157-8.6382-0.20157zm10.384-2.2397c1.8523-4.1492 1.8514-4.1649-0.36817-6.25l-2.2251-2.0904-2.1855 4.0945c-2.4597 4.6082-2.7864 7.4909-0.93553 8.2548 2.5104 1.0361 3.8962 0.0639 5.7144-4.0089zm9.0357-11.417c0-0.38617-0.85055-1.7525-1.8901-3.0363l-1.8901-2.3342-3.1473 3.3692-3.1473 3.3692 2.2216 2.3648 2.2216 2.3648 2.8158-2.6977c1.5487-1.4837 2.8158-3.0136 2.8158-3.3998zm42.393-31.505c0.33385-0.86998 0.60581-3.2325 0.60436-5.25l-3e-3 -3.6682h-6.498c-6.4478 0-6.498 0.0216-6.4974 2.7954 9e-4 3.9776 4.0393 7.7046 8.3482 7.7046 2.2129 0 3.6548-0.56377 4.0454-1.5818zm-0.9748-11.025c1.1655-0.44723 1.5818-1.9939 1.5818-5.8762v-5.2692l-5.25-0.49329c-2.8875-0.27131-6.0375-0.82518-7-1.2308-1.5416-0.64971-1.7482-0.0996-1.7347 4.6195 0.0163 5.6882 0.57545 7.211 2.9847 8.1281 2.0665 0.78664 7.5026 0.857 9.4182 0.1219zm-1.746-14.003c1.7388-0.46639 2.1378-1.2608 2-3.9819-0.16576-3.2721-0.32183-3.3989-4.1722-3.3901-6.7093 0.0154-8.5 0.86484-8.5 4.0321 0 2.3054 0.49941 2.8926 2.75 3.2335 4.6055 0.69766 5.6645 0.71188 7.9222 0.10631zm33.828 49.61c-0.7292-1.1799 0.21667-3 1.559-3 0.51754 0 0.94098 0.9 0.94098 2 0 2.1091-1.4549 2.691-2.5 1zm-72.5-2c0-0.55 0.45-1 1-1s1 0.45 1 1-0.45 1-1 1-1-0.45-1-1zm61.543-2.9309c-0.31644-0.512-0.11799-1.2136 0.44098-1.559s1.0163 0.0734 1.0163 0.9309c0 1.7565-0.60006 2.0152-1.4573 0.62812zm-51.543-1.0101c0-0.51754 0.45-1.2191 1-1.559s1 0.0835 1 0.94098c0 0.85746-0.45 1.559-1 1.559s-1-0.42344-1-0.94098zm12-2c0-0.51754 0.45-1.2191 1-1.559s1 0.0835 1 0.94098c0 0.85746-0.45 1.559-1 1.559s-1-0.42344-1-0.94098zm12.583 0.0752c-0.43077-0.697-0.51316-1.5373-0.18309-1.8674 0.89497-0.89496 1.8708 0.4213 1.3874 1.8714-0.33872 1.0162-0.57427 1.0154-1.2043-4e-3zm14.417-0.5752c0-0.85746 0.45-1.559 1-1.559s1 0.42344 1 0.94098-0.45 1.2191-1 1.559-1-0.0835-1-0.94098zm-41-52.5c0-0.51754 0.45-1.2191 1-1.559s1 0.0835 1 0.94098c0 0.85746-0.45 1.559-1 1.559s-1-0.42344-1-0.94098zm17.597 0.0972c-0.34605-0.55992-0.1419-1.3192 0.45366-1.6873 1.5375-0.95021 2.5295 0.35135 1.246 1.6348-0.71818 0.71818-1.2775 0.73543-1.6996 0.0524zm18.403-3.6562c0-0.825 0.45-1.5 1-1.5s1 0.675 1 1.5-0.45 1.5-1 1.5-1-0.675-1-1.5zm-51-1c0-0.825 0.45-1.5 1-1.5s1 0.675 1 1.5-0.45 1.5-1 1.5-1-0.675-1-1.5zm68.446-2.5871c-0.36954-0.59793-0.17109-1.5879 0.44098-2.2 0.81716-0.81716 1.1129-0.52829 1.1129 1.0871 0 2.4145-0.51946 2.7866-1.5538 1.1129zm13.054-3.9129c-0.7292-1.1799 0.21667-3 1.559-3 0.51754 0 0.94098 0.9 0.94098 2 0 2.1091-1.4549 2.691-2.5 1zm-10.869-20.696c-2.5263-10.342-5.3299-22.854-6.23-27.804-1.8424-10.131-3.1156-39.192-1.775-40.514 0.49758-0.49062 0.92521 5.6761 0.99344 14.326 0.12131 15.38 1.5668 26.571 5.4492 42.188 1.0939 4.4 2.2236 9.35 2.5105 11s1.4218 6.5396 2.5219 10.866c1.1002 4.3262 1.803 8.0631 1.5618 8.3043-0.24118 0.24118-2.5055-8.0234-5.0318-18.366zm22.369 15.696c0-1.2889 0.50641-1.9979 1.25-1.75 0.6875 0.22917 1.25 1.0167 1.25 1.75s-0.5625 1.5208-1.25 1.75c-0.74359 0.24786-1.25-0.46111-1.25-1.75zm-101.43-2.5714c-0.36782-1.4655-0.47591-2.8574-0.24019-3.0931 0.23571-0.23571 0.72951 0.77049 1.0973 2.236s0.47591 2.8574 0.24019 3.0931c-0.23571 0.23571-0.72951-0.77049-1.0973-2.236zm15.67 0.53726c-1.242-0.49907-2.7821-2.0575-3.4226-3.4631-1.6245-3.5653 0.91979-8.6765 5.3702-10.788 7.8188-3.7102 30.405-5.0878 34.651-2.1134 3.4628 2.4254 4.5461 6.1599 2.6337 9.0787-2.0849 3.182-4.7758 4.1138-18.474 6.3975-12.502 2.0842-17.275 2.2885-20.758 0.88872zm96.758-1.9658c0-1.2889 0.50641-1.9979 1.25-1.75 0.6875 0.22917 1.25 1.0167 1.25 1.75s-0.5625 1.5208-1.25 1.75c-0.74359 0.24786-1.25-0.46111-1.25-1.75zm-114.43-5.5714c-0.36782-1.4655-0.47591-2.8574-0.24019-3.0931 0.23571-0.23571 0.72951 0.77049 1.0973 2.236s0.47591 2.8574 0.24019 3.0931c-0.23571 0.23571-0.72951-0.77049-1.0973-2.236zm-4.4007-16.148c-10.343-39.277-7.8364-61.346 8.9518-78.829 3.2326-3.3665 5.8775-6.8333 5.8775-7.7041 0-4.5415 4.3784-7.8236 10.2-7.6464l3.2997 0.10045-3.9827 0.93228c-7.302 1.7092-6.679 3.1657 0.98273 2.2976 14.733-1.6691 16.425-0.59072 9.67 6.1638-3.1601 3.1601-4.0509 4.9034-4.6201 9.0419-0.68009 4.9448-0.83375 5.1478-4.325 5.7144-1.991 0.32309-3.8455 0.36184-4.1212 0.0861-0.89166-0.89167 1.905-9.6405 4.0402-12.639 1.1408-1.6022 2.2898-2.6975 2.5532-2.4341 0.26343 0.26343-0.49171 1.7919-1.6781 3.3965-2.2323 3.0193-4.3005 9.9643-3.165 10.628 1.6487 0.96302 5.1474-1.478 5.1678-3.6057 0.0346-3.5945 3.4587-10.229 6.5237-12.64 3.9942-3.1418 2.1372-4.5953-3.9219-3.0696-2.57 0.64714-6.8897 0.96358-9.5994 0.70322-3.6773-0.35334-5.0658-0.11069-5.4755 0.95691-0.93358 2.4329-0.6125 18.424 0.35788 17.824 0.49871-0.30822 0.67408 0.32931 0.38971 1.4167-0.48478 1.8538-0.0485 1.9631 6.9923 1.7514 4.1301-0.12417 7.2789-0.6025 6.9974-1.063-0.28155-0.46047 0.7764-0.70667 2.351-0.54713 5.8075 0.58844 6.8144-0.99216 6.5451-10.274-0.1331-4.5878 0.19016-9.6915 0.71837-11.342 0.7031-2.1963 0.91204 0.46562 0.77992 9.9361l-0.18046 12.936-5 1.2946c-2.75 0.71202-8.4312 1.3033-12.625 1.3139l-7.625 0.01929-0.625-3.125c-0.34375-1.7188-0.625-5.0938-0.625-7.5s-0.4083-4.375-0.90733-4.375c-1.9128 0-10.528 10.776-13.267 16.594-7.7123 16.384-7.3312 36.493 1.2747 67.245 1.1296 4.0366 1.8555 7.5378 1.6129 7.7803-0.24252 0.24252-1.8369-4.8602-3.543-11.339zm12.079-30.986c-2.2995-0.4429-2.7101-1.9754-1.6197-6.0443l0.60297-2.25h45.767v7.6889l-14.25 0.65189c-15.073 0.68952-26.771 0.67168-30.5-0.0465zm66.379-32.294c0.88249-5.0011 4.6699-12.077 8.4341-15.757 4.7475-4.6416 11.127-7.2735 18.773-7.7452l6.6637-0.41107-6 0.87707c-14.185 2.0735-21.692 8.121-26.605 21.432-1.4643 3.9672-1.7465 4.3249-1.2666 1.6049zm35.503-23.505c-3.0484-4.4575-10.12-9.1176-17.113-11.278-8.5085-2.6284-31.432-2.2358-44.52 0.7625-12.293 2.8161-18.385 3.612-17 2.2209 1.4346-1.4412 8.9242-3.8056 18.614-5.8766 12.833-2.7426 36.094-2.5448 45.409 0.38615 7.7796 2.4479 14.451 7.3983 16.439 12.199 1.8869 4.5553 0.82809 5.4726-1.8301 1.5857zm-97.131 0.5939c5.2e-4 -0.32374 3.488-0.73929 7.75-0.92344 4.262-0.18416 7.4326-0.0177 7.0458 0.3699-0.8574 0.85922-14.797 1.3807-14.796 0.55355z" fill="#554e50"/>
 <path d="m87.085 281.31c-0.11158-4.3972 3.3697-11.039 8.4302-16.083 2.6209-2.6125 5.1784-4.75 5.6833-4.75 0.52883 0 0.63585-2.4945 0.25243-5.8835-0.84874-7.5018 0.66778-12.188 5.583-17.253 4.3901-4.5237 14.338-9.3442 21.499-10.418 2.7416-0.41109 5.4712-1.4126 6.0657-2.2256 0.84217-1.1516 1.1183-0.52723 1.2497 2.826 0.0928 2.3673 0.81333 5.288 1.6013 6.4906 2.3881 3.6447 10.514 4.1817 14.877 0.98308 1.4034-1.0288 1.7396-2.4122 1.5-6.1727-0.28682-4.5026-0.48627-4.8285-2.8087-4.5887l-2.5 0.25805 2.25-1.63c2.2961-1.6634 2.7028-3.8723 1.6666-9.0532-0.58018-2.9009-0.62038-2.9159-7.25-2.6997-6.4345 0.2098-6.4925 0.19076-1.6666-0.54692 7.5645-1.1563 8.5-1.8012 8.5-5.8599 0-5.6076 0.71944-3.3937 1.3888 4.2737 0.33609 3.85 0.88721 8.9125 1.2247 11.25l0.61361 4.25h5.8377c5.6365 0 14.211 1.7442 20.435 4.1568 9.1428 3.5439 13.777 10.517 13.385 20.139-0.24244 5.9406-0.16527 6.1471 2.7391 7.3322 4.643 1.8946 11.388 9.2645 14.526 15.872 2.8494 6.0002 3.7345 11.5 1.8508 11.5-0.55 0-1-0.42961-1-0.95469 0-1.8241-6.4063-2.2031-10.218-0.60457-5.0157 2.1035-5.1724 2.0611-7.0676-1.9132-0.91076-1.9099-3.5398-4.8372-5.8423-6.5051l-4.1864-3.0326-4.364 6.5051c-2.4002 3.5778-5.0453 6.5051-5.8781 6.5051-2.0024 0-0.91746-2.0496 6.6993-12.656 3.2213-4.4856 5.857-8.8954 5.857-9.7997 0-2.6004-2.7192-7.1786-5.618-9.4588-4.2407-3.3358-15-6.176-26.882-7.096l-11-0.85178 12.5 0.33162c10.203 0.27067 13.611 0.76338 18.544 2.681 7.4839 2.9093 9.6293 4.4376 12.226 8.7093l2.0424 3.36 1.2504-2.3364c2.1265-3.9734 2.9047-9.2147 1.918-12.919-1.9618-7.3644-12.704-14.067-25.511-15.918-11.399-1.6474-11.469-1.6305-11.469 2.7789 0 5.0453-3.3274 8.2484-9.1877 8.8447-6.3117 0.64215-11.155-2.0907-11.822-6.6704-0.47492-3.2623-0.73449-3.4821-3.8217-3.2365-4.7016 0.37408-14.637 3.8755-19.237 6.7798-5.6005 3.5355-9.2064 9.3922-9.0983 14.778 0.11528 5.7433 1.3451 8.7274 7.0628 17.138 7.6192 11.208 10.195 15.541 9.238 15.541-0.49017 0-1.4369-1.3175-2.1039-2.9277-0.66699-1.6102-2.1206-3.7477-3.2301-4.75-1.9761-1.7849-2.1057-1.7249-6.321 2.9277-4.8172 5.3169-5.9722 5.927-4.3087 2.276 1.0276-2.2554 0.68705-2.9259-3.8534-7.5869l-4.9806-5.1129-2.593 5.3369c-1.4262 2.9353-3.0463 6.4619-3.6004 7.8369l-1.0074 2.5-0.0677-2.6671zm122.18-3.0324c1.5125 0.0361 2.75-0.0727 2.75-0.24172 0-1.6473-3.3077-8.9728-4.7511-10.522-1.7784-1.9088-1.971-1.9184-5.2266-0.25934-1.8591 0.9474-4.23 2.883-5.2686 4.3012-1.86 2.5399-1.8565 2.6328 0.234 6.176l2.1224 3.5973 3.6949-1.5585c2.0322-0.85719 4.9324-1.529 6.4449-1.4928zm-100.36-3.5506 2.115-1.75-4.1747-6.3128-4.1748-6.3128-3.3715 3.3714c-4.0277 4.0277-3.7175 5.5293 2.0124 9.7432 4.7969 3.5277 4.8445 3.5356 7.5936 1.2609zm90.602-8.3665 3.4202-3.6165-4.0241-3.2339c-2.2133-1.7786-4.142-3.0762-4.286-2.8835-0.14402 0.19272-1.8906 2.9986-3.8813 6.2354l-3.6195 5.885 3.1976 2.2317c2.9117 2.0322 3.3127 2.0872 4.4852 0.61503 0.70818-0.88917 2.8267-3.2441 4.7078-5.2332zm-19.495-7.9425c0-0.58246 0.45-0.7809 1-0.44098s1 0.81648 1 1.059-0.45 0.44098-1 0.44098-1-0.47656-1-1.059zm-11.457-3.8719c-0.31644-0.512-0.11799-1.2136 0.44098-1.559s1.0163 0.0734 1.0163 0.9309c0 1.7565-0.60006 2.0152-1.4573 0.62812zm-53.73-7.7522c0.72187-0.28887 1.5844-0.25335 1.9167 0.0789 0.33229 0.33229-0.25834 0.56864-1.3125 0.52522-1.165-0.048-1.4019-0.28494-0.60417-0.60416zm11.457-2.0099c0.97297-0.25354 2.323-0.23687 3 0.0371 0.67703 0.27393-0.11903 0.48137-1.769 0.46099-1.65-0.0204-2.2039-0.2445-1.231-0.49804zm9.4989-1.0317c1.7974-0.22256 4.4974-0.21797 6 0.0102 1.5026 0.22818 0.0321 0.41027-3.2679 0.40466-3.3-6e-3 -4.5294-0.1923-2.7321-0.41486zm2.9821-18.938c0.6875-0.27741 1.8125-0.27741 2.5 0s0.125 0.50439-1.25 0.50439-1.9375-0.22698-1.25-0.50439zm6 0c0.6875-0.27741 1.8125-0.27741 2.5 0s0.125 0.50439-1.25 0.50439-1.9375-0.22698-1.25-0.50439zm-10.671-5.921c0.048-1.165 0.28494-1.4019 0.60416-0.60417 0.28887 0.72187 0.25335 1.5844-0.0789 1.9167-0.3323 0.33229-0.56864-0.25834-0.52522-1.3125zm-5.0188-16.963c22.871-1.9203 38.838-5.2126 58.94-12.152 5.7704-1.9921 21.261-9.6394 25.183-12.432 2.982-2.1234 3.0116-2.2338 2.348-8.7602-2.0309-19.971-5.8608-50.632-8.1132-64.95-1.4138-8.9872-2.38-16.531-2.1473-16.763 1.5123-1.5123 11.015 65.872 11.919 84.518l0.31092 6.414-4.5 2.6239c-21.426 12.494-63.988 23.28-90.474 22.928-8.5272-0.1131-8.166-0.19195 6.5339-1.4262zm-25.457-0.93065c-2.1433-0.76384-4.6183-2.143-5.5-3.0648-1.4217-1.4864-1.2071-1.4737 1.897 0.112 1.925 0.9834 5.75 2.344 8.5 3.0237 3.8751 0.95764 4.325 1.2449 2 1.2768-1.65 0.0226-4.7536-0.5838-6.897-1.3476zm11.897-2.5234c-0.33992-0.55-0.14148-1 0.44098-1s1.059 0.45 1.059 1-0.19844 1-0.44098 1-0.7191-0.45-1.059-1zm17.579-0.58333c0.048-1.165 0.28494-1.4019 0.60416-0.60417 0.28887 0.72187 0.25335 1.5844-0.0789 1.9167-0.3323 0.33229-0.56864-0.25834-0.52522-1.3125zm17.921-3.4167c0-0.55 0.45-1 1-1s1 0.45 1 1-0.45 1-1 1-1-0.45-1-1zm-50.5-1c0.33992-0.55 0.81648-1 1.059-1s0.44098 0.45 0.44098 1-0.47656 1-1.059 1-0.7809-0.45-0.44098-1zm81.5-7c0-0.55 0.45-1 1-1s1 0.45 1 1-0.45 1-1 1-1-0.45-1-1zm11.583-2.8658c-0.43077-0.697-0.51316-1.5373-0.18309-1.8674 0.89497-0.89496 1.8708 0.4213 1.3874 1.8714-0.33872 1.0162-0.57427 1.0154-1.2043-4e-3zm-85.372-3.2209c-5.5922-1.6846-6.3057-7.8324-1.4198-12.233 3.1502-2.837 10.507-4.6024 22.119-5.3077 8.8537-0.53774 11.201-0.367 13.86 1.008 5.3479 2.7655 5.7252 8.8578 0.72695 11.737-5.4339 3.1301-29.815 6.4435-35.286 4.7954zm16.163-2.4176c6.3117-0.82739 12.522-1.9545 13.801-2.5046 1.9389-0.834 1.6606-0.92793-1.6747-0.56522-10.693 1.1629-19.169 2.416-20.752 3.0681-2.5019 1.0305-6.3604-0.16179-8.7201-2.6946-1.4143-1.5181-2.023-1.7413-2.0124-0.73789 0.0304 2.8537 2.3565 4.6818 6.1835 4.8596 0.93433 0.0434 6.8629-0.59801 13.175-1.4254zm80.21 1.6386c-0.43077-0.697-0.51316-1.5373-0.18309-1.8674 0.89497-0.89496 1.8708 0.4213 1.3874 1.8714-0.33872 1.0162-0.57427 1.0154-1.2043-4e-3zm9-5c-0.43077-0.697-0.51316-1.5373-0.18309-1.8674 0.89497-0.89496 1.8708 0.4213 1.3874 1.8714-0.33872 1.0162-0.57427 1.0154-1.2043-4e-3zm-126.5-10.718c0.048-1.165 0.28494-1.4019 0.60416-0.60417 0.28887 0.72187 0.25335 1.5844-0.0789 1.9167-0.3323 0.33229-0.56864-0.25834-0.52522-1.3125zm-2-8c0.04798-1.165 0.28494-1.4019 0.60417-0.60417 0.28887 0.72187 0.25334 1.5844-0.07895 1.9167-0.33229 0.33229-0.56864-0.25834-0.52522-1.3125zm-2.7047-9.8837c-0.30962-0.80686-0.36996-2.0444-0.13409-2.75s0.66592-0.0455 0.95566 1.467c0.56574 2.9532 0.09904 3.682-0.82156 1.283zm-1.7336-8.7433c-0.33734-1.2593-0.56335-3.8647-0.50225-5.7897 0.08483-2.6724 0.29932-2.2004 0.90707 1.9959 0.83643 5.7753 0.63404 7.6719-0.40482 3.7937zm18.109-11.501c-2.4625-0.37726-2.75-0.83251-2.75-4.3549v-3.9336h44.773l0.50624 3.25c0.27844 1.7875 0.21701 3.5303-0.1365 3.8729-0.76306 0.73951-38.416 1.7748-42.393 1.1656zm15.026-2.0154c-2.048-0.21488-5.648-0.21785-8-7e-3 -2.352 0.21125-0.67643 0.38706 3.7236 0.39069 4.4 4e-3 6.3244-0.16921 4.2764-0.38408zm23.991-0.98764c-1.5026-0.22817-4.2026-0.23276-6-0.0102s-0.56791 0.40925 2.7321 0.41486c3.3 6e-3 4.7706-0.17648 3.2679-0.40466zm-58.44-4.7855c0.0044-3.85 0.18518-5.3025 0.40166-3.2277 0.21648 2.0748 0.21285 5.2248-0.0081 7-0.22091 1.7752-0.39803 0.0777-0.39359-3.7723zm82.83 2.5c0-1.375 0.22698-1.9375 0.50439-1.25s0.27741 1.8125 0 2.5-0.50439 0.125-0.50439-1.25zm-82.078-13.004c-0.09907-4.3669 3.8032-15.307 7.5313-21.115 3.36-5.2341 11.209-13.394 12.063-12.54 0.3331 0.33311-2.1048 3.5031-5.4175 7.0444-6.9044 7.3808-10.703 14.462-12.701 23.674-1.1022 5.0832-1.4135 5.7024-1.4762 2.9369zm20.929-16.612c5e-3 -0.48604 3.7505-0.93521 8.3243-0.99816 9.8138-0.13507 15.465-1.7402 16.673-4.736 0.81618-2.023 0.87096-1.9934 0.93061 0.50262 0.0503 2.1048-0.60738 2.9001-3.1866 3.8533-3.9757 1.4693-22.753 2.6073-22.742 1.3782zm103.07-6.967c0.048-1.1649 0.28494-1.4019 0.60416-0.60417 0.28887 0.72187 0.25335 1.5844-0.0789 1.9167-0.3323 0.33229-0.56864-0.25834-0.52522-1.3125zm-1-4c0.048-1.1649 0.28494-1.4019 0.60416-0.60417 0.28887 0.72188 0.25335 1.5844-0.0789 1.9167-0.3323 0.33229-0.56864-0.25833-0.52522-1.3125zm-77.881-3.9167c-0.0457-2.75 0.28915-6.8 0.7442-9l0.82737-4 0.0161 3.5c9e-3 1.925-0.32603 5.975-0.7442 9l-0.7603 5.5-0.0832-5zm71.748-8.5476c-7.9561-7.9455-17.466-10.97-34.38-10.933-9.6755 0.02114-19.345 1.1608-29.066 3.4258-9.2418 2.1533-12.5 2.5823-12.5 1.6459 0-0.47213 1.0125-1.1203 2.25-1.4403 17.864-4.62 22.874-5.5188 35.113-6.3 9.2353-0.58949 20.762 0.5613 26.137 2.6094 9.6932 3.6935 14.509 7.2322 16.551 12.162 0.67011 1.6178 1.0453 3.0395 0.83377 3.1593-0.21153 0.11986-2.4338-1.8285-4.9383-4.3297zm-75.661 1.747c1.2178-1.2653 2.399-2.1681 2.6248-2.0061 0.58355 0.41851-3.0546 4.3067-4.0298 4.3067-0.44511 0 0.18714-1.0352 1.405-2.3006zm-20.286-2.518c0-1.2086 1.8972-2.6176 2.5907-1.9241 0.2517 0.2517-0.22824 1.0269-1.0665 1.7226-0.95039 0.78875-1.5242 0.86461-1.5242 0.20152zm12.75-0.84374c0.6875-0.27741 1.8125-0.27741 2.5 0 0.6875 0.27741 0.125 0.50439-1.25 0.50439s-1.9375-0.22697-1.25-0.50439zm-7.75-2.292c0.825-0.55829 2.3625-1.022 3.4167-1.0304 2.5584-0.02044 1.7603 0.55192-1.9167 1.3744-2.1909 0.49007-2.5955 0.3973-1.5-0.34401z" fill="#482726"/>
 <path d="m87.09 281.66c-0.11946-3.7798 4.5406-12.411 9.013-16.693l4.173-3.9954-4.6129 6.022c-2.5371 3.3121-5.4875 8.4871-6.5564 11.5-1.2192 3.4362-1.9708 4.6163-2.0166 3.1661zm15.927 1.4687c0-0.43353 0.49044-1.7046 1.0899-2.8247 0.92792-1.7338 0.5936-2.4777-2.25-5.0064l-3.3399-2.97 3.7718 2.7074c3.7198 2.6702 3.8024 2.6816 6 0.8293l2.2282-1.8781-2.0939 2.4928c-1.1516 1.3711-2.8391 3.6055-3.75 4.9654-0.91087 1.3599-1.6561 2.1178-1.6561 1.6842zm73.087-2.3864c0.5708-1.5013 1.3585-2.9638 1.7505-3.25 0.39197-0.28619 2.8398-3.6704 5.4398-7.5204 6.1319-9.0803 6.1604-11.465 0.20491-17.171-4.6845-4.4885-4.7442-5.8955-0.0949-2.2384 1.4615 1.1496 3.4898 3.7131 4.5075 5.6967l1.8502 3.6065 1.8182-3.4467c2.6983-5.1148 2.5344-13.608-0.3402-17.639-4.6116-6.4653-19.17-12.243-30.973-12.291-4.139-0.0169-4.25 0.0682-4.25 3.2601 0 4.4939-2.3362 7.4434-7.0033 8.8416-3.2953 0.98728-4.6639 0.89779-8.4638-0.55341-2.4931-0.95212-4.5329-2.3824-4.5329-3.1784 0-1.0992 0.70515-0.92588 2.9319 0.72044 2.3492 1.7368 3.8479 2.0644 7.5406 1.6482 7.6625-0.86368 9.8985-4.4886 7.6357-12.379-0.51206-1.7855-0.51858-3.6988-0.0153-4.4934 0.62604-0.9885 0.88085-0.59817 0.89179 1.3661 0.0141 2.526 0.3321 2.75 3.9048 2.75 11.409 0 26.751 5.0767 31.456 10.409 6.1458 6.9651 6.2114 16.274 0.19164 27.225l-3.7012 6.7336 2.3321 1.7997c1.2826 0.98984 3.0071 2.0411 3.8321 2.3362 1.5029 0.53756 6.4805 9.3493 5.7142 10.116-0.22407 0.22408-1.6594-1.5733-3.1896-3.9941-1.5302-2.4208-4.481-5.3563-6.5574-6.5233l-3.7753-2.1218-4.1115 6.51c-4.2492 6.7281-6.8676 8.7105-4.9932 3.7804zm37.551 1.2296c-0.6854-1.7861-7.0951-2.0335-11.323-0.43709-1.5483 0.5846-2.3651 0.64602-1.8151 0.13648 1.4267-1.3218 7.3806-3.1994 10.145-3.1994h2.3467l-1.9772-5.2035c-2.7043-7.1171-5.031-9.3578-8.1429-7.8418-2.1921 1.068-2.2316 1.0427-0.52169-0.33308 2.2401-1.8024 1.6623-2.8757-3.6-6.6878-4.2395-3.0711-4.008-4.1433 0.27737-1.2846 8.1547 5.4397 14.286 14.206 15.575 22.268 0.64952 4.0619 0.13351 5.4438-0.96441 2.5826zm-98.127-4.1231c-0.9453-1.4427-1.2245-2.3177-0.62038-1.9443 1.1544 0.71346 3.4827 4.5674 2.7593 4.5674-0.23109 0-1.1936-1.1804-2.1389-2.6231zm-4.2874-4.1269c0.12311-0.4125-1.3836-3.2395-3.3482-6.2822-5.7718-8.939-6.234-10.164-6.2425-16.55-0.011-8.2963 3.7568-13.747 12.838-18.574 7.0144-3.7278 20.528-7.2801 20.528-5.3962 0 0.65753-2.8454 1.7508-6.3907 2.4555-20.79 4.1325-30.839 17.013-23.864 30.591 0.84925 1.6534 3.2958 5.5936 5.4368 8.7561 2.8106 4.1516 3.4654 5.75 2.3555 5.75-0.84549 0-1.4365-0.3375-1.3134-0.75zm63.276-26.25c-1.3187-0.56668-1.4891-0.87815-0.5-0.9144 0.825-0.0302 2.175 0.38124 3 0.9144 1.828 1.1813 0.24909 1.1813-2.5 0zm-8.5-2c-3.4604-0.72839-3.4661-0.73803-0.5-0.85305 1.65-0.064 3.675 0.31989 4.5 0.85305 1.6651 1.076 1.1121 1.076-4 0zm-30.921-14.583c0.048-1.165 0.28494-1.4019 0.60416-0.60417 0.28887 0.72187 0.25335 1.5844-0.0789 1.9167-0.3323 0.33229-0.56864-0.25834-0.52522-1.3125zm18.173-15.917c0.0111-2.2 0.21589-2.9822 0.45508-1.7383s0.23011 3.0439-0.0202 4c-0.25029 0.95609-0.446-0.0617-0.4349-2.2617zm-8.0067-4.4291c5.5244-0.77049 6.4486-1.5031 7.0278-5.5709 0.40196-2.8233 0.43594-2.7886 0.57695 0.58948 0.12314 2.9502-0.30381 3.7962-2.3972 4.75-1.4009 0.63829-4.2134 1.1004-6.25 1.0269-3.4664-0.12508-3.3998-0.17589 1.0425-0.79547zm-26.462-7.8093c2.9059-0.20265 7.4059-0.20052 10 5e-3 2.5941 0.20525 0.21648 0.37104-5.2835 0.36844-5.5-3e-3 -7.6224-0.17053-4.7165-0.37317zm-15.108-1.7132c-2.1034-0.75011-4.1284-1.7021-4.5-2.1154-0.37157-0.41337 0.22441-0.40609 1.3244 0.0162 1.1 0.42228 3.4625 1.1901 5.25 1.7063 1.7875 0.5162 3.25 1.1424 3.25 1.3915 0 0.70112-1.1772 0.48032-5.3244-0.99864zm35.824 0.45164c1.65-0.41985 4.8-0.76029 7-0.75652l4 7e-3 -4.5 0.80071c-2.475 0.44039-5.625 0.78083-7 0.75652-2.2656-0.0401-2.2187-0.11577 0.5-0.80756zm13-2c1.1-0.47269 3.35-0.83782 5-0.8114l3 0.048-3 0.76337c-1.65 0.41985-3.9 0.78498-5 0.8114l-2 0.048 2-0.85943zm10.312-1.6831c0.72187-0.28887 1.5844-0.25335 1.9167 0.0789 0.33229 0.33229-0.25834 0.56864-1.3125 0.52522-1.165-0.048-1.4019-0.28494-0.60417-0.60416zm5.1875-1.2712c0.825-0.55829 2.3625-1.022 3.4167-1.0304 2.5584-0.0204 1.7603 0.55192-1.9167 1.3744-2.1909 0.49007-2.5955 0.3973-1.5-0.34401zm6-1.4526c0-0.63139 13.279-4.6475 13.764-4.1627 0.23626 0.23625-2.5863 1.3611-6.2724 2.4996-7.175 2.2162-7.4913 2.2864-7.4913 1.6632zm17-5.7632c12.279-5.7986 18.604-9.0962 22.534-11.748 3.6679-2.4754 4.5507-2.7591 4.2845-1.3769-0.1844 0.95752-2.1314 2.7586-4.3268 4.0025-4.564 2.5859-18.764 8.6794-22.492 9.6512l-2.5 0.65189zm-81.5-8.5234c-1.1-0.27539-2.4196-0.89919-2.9326-1.3862-0.54236-0.515 0.29444-0.53971 2-0.0591 1.6129 0.45454 5.6326 0.48466 8.9326 0.0669 3.3-0.41772 7.575-0.74816 9.5-0.73431l3.5 0.0252-4 0.76962c-6.2673 1.2059-14.804 1.8676-17 1.3178zm27.331-4.1737c7.3661-2.2043 10.806-4.6568 5.1692-3.6853-23.132 3.9869-32.143 4.409-34.917 1.6357-1.0542-1.0542-2.1792-1.6542-2.5-1.3333-1.6245 1.6245-0.30036-1.6766 1.4082-3.5105 4.0374-4.3336 7.7084-5.2912 26.247-6.8461 7.3649-0.61773 7.9101-0.51779 11.306 2.0726 2.9602 2.2579 3.5161 3.2595 3.2619 5.8778-0.36032 3.712-4.5152 6.2193-11.806 7.1247-4.0954 0.50854-3.9308 0.38845 1.8308-1.3357zm76.669-3.1329c0.33992-0.55 0.81648-1 1.059-1s0.44098 0.45 0.44098 1-0.47656 1-1.059 1-0.7809-0.45-0.44098-1zm2.4289-4.25c-0.12616-2.2189-1.834-18.007-2.8936-26.75-0.5666-4.675-1.3923-11.538-1.8349-15.252s-0.49134-6.4137-0.10834-6c1.3081 1.4129 6.6864 49.252 5.5371 49.252-0.34607 0-0.66119-0.5625-0.70028-1.25zm-135.85-37.333c0.04798-1.165 0.28494-1.4019 0.60417-0.60417 0.28887 0.72187 0.25334 1.5844-0.07895 1.9167-0.33229 0.33229-0.56864-0.25834-0.52522-1.3125zm24.171-6.1451c2.0625-0.21574 5.4375-0.21574 7.5 0 2.0625 0.21575 0.375 0.39226-3.75 0.39226s-5.8125-0.17651-3.75-0.39226zm27.25-0.7677c2.5367-0.85809 10.405-1.1586 9.9228-0.37895-0.29747 0.48132-2.8768 0.83959-5.7318 0.79617-2.855-0.0434-4.741-0.23117-4.191-0.41722zm-32.931-3.6156c0.37792-0.6115 0.067-1.5046-0.69098-1.9847-0.80925-0.51257 7.8065-0.87921 20.872-0.8882 17.985-0.0124 22.25 0.24266 22.25 1.3304 0 1.0232-3.0553 1.5015-12.75 1.9959-19.793 1.0095-30.484 0.84614-29.681-0.45342zm110.1-11.779c-0.36953-1.8477-0.62257-4.3156-0.5623-5.4844 0.0603-1.1688 0.50805-0.1 0.99508 2.375 0.48704 2.475 0.74008 4.943 0.56231 5.4844-0.17777 0.54141-0.62555-0.52734-0.99509-2.375zm-128.48-2.6094c0.02038-1.65 0.2445-2.2039 0.49804-1.231 0.25354 0.97297 0.23687 2.323-0.03705 3-0.27393 0.67703-0.48137-0.11903-0.46099-1.769zm1.8906-7.5c-0.03024-0.825 0.38125-2.175 0.9144-3 1.1813-1.828 1.1813-0.24909 0 2.5-0.56668 1.3187-0.87816 1.4891-0.9144 0.5zm124.07-6c0-1.375 0.22698-1.9375 0.50439-1.25s0.27741 1.8125 0 2.5-0.50439 0.125-0.50439-1.25zm-121.58-1c0.74186-2.785 1.2148-3.536 1.8357-2.9152 0.23 0.23-0.23877 1.5425-1.0417 2.9167l-1.4599 2.4985zm20.501-1.3604c0.22917-0.19825 4.0167-0.59672 8.4167-0.8855 4.5386-0.29787 6.702-0.19311 5 0.24213-3.031 0.77512-14.187 1.3101-13.417 0.64337zm19.05-2.9642c0.89833-0.67386 1.8586-2.114 2.134-3.2003 0.39257-1.5486 0.52571-1.4065 0.61667 0.6583 0.0858 1.948-0.4696 2.7809-2.134 3.2003-1.9554 0.49267-2.0361 0.40647-0.61667-0.6583zm-37.102-0.0809c-0.071-2.03 10.559-14.337 11.538-13.358 0.2638 0.2638-1.2379 2.2311-3.3371 4.3718-2.0992 2.1407-4.796 5.2422-5.9928 6.8922s-2.1904 2.5925-2.2078 2.0944zm110.43-20.786c-4.5377-4.7026-11.521-8.2599-19.46-9.9137-7.1886-1.4973-32.349-0.51625-41 1.5987-3.575 0.87397-8.525 1.8111-11 2.0826l-4.5 0.49355 4-1.4417c10.801-3.8931 33.639-6.64 45.311-5.45 15.536 1.5839 23.491 4.932 28.597 12.036 3.8096 5.2998 2.8693 5.587-1.9477 0.59488zm-71.228 0.1915c0-1.925 0.2058-2.7125 0.45733-1.75 0.25152 0.9625 0.25152 2.5375 0 3.5-0.25153 0.9625-0.45733 0.175-0.45733-1.75z" fill="#381716"/>
</svg>
